<svg xmlns:dc="http://purl.org/dc/elements/1.1/" xmlns:cc="http://creativecommons.org/ns#" xmlns:rdf="http://www.w3.org/1999/02/22-rdf-syntax-ns#" xmlns:svg="http://www.w3.org/2000/svg"
  xmlns="http://www.w3.org/2000/svg" xmlns:xlink="http://www.w3.org/1999/xlink" version="1.1" width="721.20178" height="162.18156" id="resistor">
  <defs id="defs3211">
    <linearGradient x1="689.05829" y1="857.93304" x2="689.05829" y2="887.09424" id="linearGradient4258" xlink:href="#linearGradient3840" gradientUnits="userSpaceOnUse"
      gradientTransform="translate(19.943936,121.5263)" />
    <linearGradient id="linearGradient3840">
      <stop id="stop3842" style="stop-color:#4d4d4d;stop-opacity:1" offset="0" />
      <stop id="stop3848" style="stop-color:#ffffff;stop-opacity:1" offset="0.5" />
      <stop id="stop3844" style="stop-color:#171717;stop-opacity:1" offset="1" />
    </linearGradient>
    <linearGradient x1="728.47137" y1="917.27405" x2="727.05823" y2="1078.7909" id="linearGradient4260" xlink:href="#linearGradient4136" gradientUnits="userSpaceOnUse" />
    <linearGradient id="linearGradient4136">
      <stop id="stop4138" style="stop-color:#375e81;stop-opacity:1" offset="0" />
      <stop id="stop4144" style="stop-color:#375e81;stop-opacity:1" offset="0.62499046" />
      <stop id="stop4140" style="stop-color:#14222f;stop-opacity:1" offset="1" />
    </linearGradient>
    <linearGradient x1="490.5" y1="874.64062" x2="501.125" y2="874.64062" id="linearGradient4262" xlink:href="#linearGradient3861" gradientUnits="userSpaceOnUse"
      gradientTransform="translate(19.943936,121.5263)" />
    <linearGradient id="linearGradient3861">
      <stop id="stop3863" style="stop-color:#000000;stop-opacity:0.69999999" offset="0" />
      <stop id="stop3865" style="stop-color:#000000;stop-opacity:0" offset="1" />
    </linearGradient>
    <linearGradient x1="931.31293" y1="872.96033" x2="919.40393" y2="872.96033" id="linearGradient4264" xlink:href="#linearGradient3861" gradientUnits="userSpaceOnUse"
      gradientTransform="translate(19.943936,121.5263)" />
    <linearGradient id="linearGradient3177">
      <stop id="stop3179" style="stop-color:#000000;stop-opacity:0.69999999" offset="0" />
      <stop id="stop3181" style="stop-color:#000000;stop-opacity:0" offset="1" />
    </linearGradient>
    <filter color-interpolation-filters="sRGB" id="filter3921">
      <feGaussianBlur in="SourceGraphic" stdDeviation="3" result="result6" id="feGaussianBlur3923" />
      <feColorMatrix in="SourceGraphic" result="result7" values="1 0 0 0 0 0 1 0 0 0 0 0 1 0 0 0 0 0 1 0 " id="feColorMatrix3925" />
      <feComposite in2="result7" operator="in" in="result6" id="feComposite3927" />
    </filter>
    <filter color-interpolation-filters="sRGB" id="filter3929">
      <feGaussianBlur in="SourceGraphic" stdDeviation="3" result="result6" id="feGaussianBlur3931" />
      <feColorMatrix in="SourceGraphic" result="result7" values="1 0 0 0 0 0 1 0 0 0 0 0 1 0 0 0 0 0 1 0 " id="feColorMatrix3933" />
      <feComposite in2="result7" operator="in" in="result6" id="feComposite3935" />
    </filter>
    <filter color-interpolation-filters="sRGB" id="filter3937">
      <feGaussianBlur in="SourceGraphic" stdDeviation="3" result="result6" id="feGaussianBlur3939" />
      <feColorMatrix in="SourceGraphic" result="result7" values="1 0 0 0 0 0 1 0 0 0 0 0 1 0 0 0 0 0 1 0 " id="feColorMatrix3941" />
      <feComposite in2="result7" operator="in" in="result6" id="feComposite3943" />
    </filter>
    <linearGradient x1="931.31293" y1="872.96033" x2="919.40393" y2="872.96033" id="linearGradient3315" xlink:href="#linearGradient3861" gradientUnits="userSpaceOnUse"
      gradientTransform="translate(-201.98142,-538.26143)" />
    <linearGradient x1="490.5" y1="874.64062" x2="501.125" y2="874.64062" id="linearGradient3318" xlink:href="#linearGradient3861" gradientUnits="userSpaceOnUse"
      gradientTransform="translate(-201.98142,-538.26143)" />
    <linearGradient x1="728.47137" y1="917.27405" x2="727.05823" y2="1078.7909" id="linearGradient3327" xlink:href="#linearGradient4136" gradientUnits="userSpaceOnUse"
      gradientTransform="translate(-221.92536,-659.78773)" />
    <linearGradient x1="689.05829" y1="857.93304" x2="689.05829" y2="887.09424" id="linearGradient3330" xlink:href="#linearGradient3840" gradientUnits="userSpaceOnUse"
      gradientTransform="matrix(0.42363563,0,0,1,205.16562,-538.26143)" />
  </defs>
  <metadata id="metadata3215">
    <rdf:RDF>
      <cc:Work rdf:about="">
        <dc:format>image/svg+xml</dc:format>
        <dc:type rdf:resource="http://purl.org/dc/dcmitype/StillImage" />
        <dc:title></dc:title>
      </cc:Work>
    </rdf:RDF>
  </metadata>
  <g transform="translate(-143.82334,-255.31837)" id="layer1">
    <path d="m 143.82334,322.64639 721.20176,0 0,27.84778 -721.20176,0 z" id="path4081" style="fill:url(#linearGradient3330);stroke:none" />
    <path
      d="m 349.89358,255.33229 c -35.69251,0.6523 -49.52282,24.6723 -59.96875,54.75 -2.51391,7.2385 -9.22074,12.1553 -18.3125,12.25 l 0,7 0,14.15618 0,7 c 9.09176,0.095 15.7986,4.9803 18.3125,12.2188 12.38037,35.6476 29.50953,62.8253 82.15625,52.625 22.63595,-4.3857 43.04841,-17.2932 66.0625,-17.0625 28.72838,0.288 56.40593,6.0192 83.5,3.8437 31.16479,-2.5022 61.40232,-12.6741 92.09375,-1.9687 48.33263,16.8588 89.85057,16.4687 111.4375,-30.2813 4.36241,-9.4475 7.13491,-20.2492 18.5625,-19.375 l 0,-7 0,-14.15618 0,-7 c -11.42759,0.8742 -14.20009,-9.9275 -18.5625,-19.375 -21.58693,-46.75 -63.10487,-47.1401 -111.4375,-30.2813 -30.69143,10.7055 -60.92896,0.5336 -92.09375,-1.9687 -27.09407,-2.1754 -54.77162,3.5245 -83.5,3.8125 -23.01409,0.2307 -43.42655,-12.6456 -66.0625,-17.0313 -8.22605,-1.5937 -15.57778,-2.277 -22.1875,-2.1562 z"
      id="path4083" style="fill:url(#linearGradient3327);fill-opacity:1;stroke:none" />
    <path id="band1"
      d="m 349.89358,255.33229 c -0.563,0.01 -1.10406,0.041 -1.65625,0.062 l 0,162.03118 c 6.89365,0.2738 14.60425,-0.3474 23.3125,-2 l 0,-158.03118 c -8.00879,-1.52 -15.19109,-2.1807 -21.65625,-2.0625 z"
      style="fill:#361e1a;fill-opacity:1;stroke:none" />
    <path id="band2"
      d="m 454.92483,273.80099 c -5.55398,0.3723 -11.15004,0.6623 -16.78125,0.7188 -2.1993,0.022 -4.37526,-0.051 -6.53125,-0.25 l 0,124.24998 c 2.15599,-0.199 4.33195,-0.2721 6.53125,-0.25 5.63121,0.056 11.22727,0.3446 16.78125,0.7187 l 0,-125.18748 z"
      style="fill:#361e1a;fill-opacity:1;stroke:none" />
    <path id="band3"
      d="m 509.11233,270.23849 0,132.34378 c 4.19039,-0.01 8.37008,-0.1346 12.53125,-0.4688 3.60276,-0.2892 7.20114,-0.706 10.78125,-1.1562 l 0,-129.09378 c -3.58011,-0.4501 -7.17849,-0.8669 -10.78125,-1.1562 -4.16117,-0.3341 -8.34086,-0.458 -12.53125,-0.4688 z"
      style="fill:#361e1a;fill-opacity:1;stroke:none" />
    <path id="band4" d="m 602.23715,275.77649 c -7.56674,1.467 -15.10302,1.8746 -22.65625,1.6563 l 0,117.96868 c 7.55326,-0.2182 15.08948,0.1894 22.65625,1.6563 l 0,-121.28128 z"
      style="fill:#1b2b52;fill-opacity:1;fill-rule:nonzero;stroke:none" />
    <path id="band5"
      d="m 660.64358,262.58229 c -7.42224,0.2751 -15.22691,1.4087 -23.28125,3.2187 l 0,141.21878 c 8.06576,1.8126 15.88074,2.9457 23.3125,3.2187 l 0,-147.65618 c -0.0105,4e-4 -0.0207,-4e-4 -0.0312,0 z"
      style="fill:#531c25;fill-opacity:1;stroke:none" />
    <!--path d="m 494.87291,270.65857 c -7.49711,0.46767 -15.03908,1.16926 -22.65625,1.84375 l 0,127.59375 c 7.61692,0.67846 15.15938,1.37221 22.65625,1.84375 l 0,-131.28125 z" id="band6" 
      style="fill:#531c25;fill-opacity:1;fill-rule:nonzero;stroke:none"/ -->
    <path
      d="m 664.11233,268.48849 c -23.45515,-0.4143 -44.95667,10.5363 -67.6875,14.2188 -35.81549,3.9495 -70.78736,-10.4938 -106.625,-5.8125 -28.37449,2.2281 -58.52817,8.0266 -85.6875,-3.1563 -17.15537,-5.8314 -34.53145,-12.9397 -52.9375,-12.4375 -1.29499,-0.087 -2.59455,-0.1252 -3.875,-0.094 -19.2067,0.4732 -36.49944,17.0051 -43.6875,34.2657 13.2369,-15.9618 23.30075,-26.2769 44.75,-26.2969 0.92063,-0.032 1.83246,-0.035 2.75,-0.031 13.76305,0.06 27.19183,4.0191 40.0625,8.5 25.93734,12.2904 55.77259,12.0737 83.875,8.8125 30.45336,-5.9441 61.35379,0.6806 91.6875,4 23.42904,4.2905 46.71303,-3.2492 69.0625,-9.5625 19.58388,-6.3266 52.26536,-4.5942 69.45312,8.7031 -16.84923,-16.9259 -22.1382,-19.5165 -41.14062,-21.1095 z"
      id="path4095" style="fill:#ffffff;fill-opacity:0.20318723;stroke:none" />
    <path
      d="m 298.39358,289.48849 c -3.20084,6.3422 -5.93183,13.2891 -8.46875,20.5938 -0.18885,0.5438 -0.42085,1.0772 -0.65625,1.5937 l 0,49.43748 c 0.2354,0.5162 0.4674,1.05 0.65625,1.5938 2.53386,7.2959 5.27326,14.224 8.46875,20.5625 l 0,-93.78128 z"
      id="path4097" style="fill:url(#linearGradient3318);stroke:none" />
    <path
      d="m 717.23733,289.01979 0,94.78118 c 2.88112,-4.0973 5.53287,-8.7298 7.9375,-13.9375 1.35323,-2.9306 2.55319,-5.9789 3.90625,-8.7812 l 0,-49.34378 c -1.35306,-2.8023 -2.55302,-5.8506 -3.90625,-8.7812 -2.40463,-5.2076 -5.05638,-9.8402 -7.9375,-13.9375 z"
      id="path4099" style="fill:url(#linearGradient3315);stroke:none" />
    <rect width="178.94153" height="19.817629" ry="9.9088144" x="408.86792" y="321.46173" id="rect4101" style="fill:#ffffff;fill-opacity:0.7;stroke:none;filter:url(#filter3921)" />
    <rect width="24.480595" height="19.817629" ry="9.9088144" x="339.50623" y="321.46173" id="rect4103" style="fill:#ffffff;fill-opacity:0.7;stroke:none;filter:url(#filter3929)" />
    <rect width="24.480595" height="19.817629" ry="9.9088144" x="650.75958" y="321.46173" id="rect4105" style="fill:#ffffff;fill-opacity:0.7;stroke:none;filter:url(#filter3937)" />



  </g>
</svg>